<mxfile host="www.draw.io" modified="2021-04-16T09:47:32.935Z" agent="5.0 (Windows NT 10.0; Win64; x64) AppleWebKit/537.36 (KHTML, like Gecko) Chrome/89.0.4389.114 Safari/537.36" etag="ZJGuzlFzXBKw1skGDpvI" version="14.6.1" type="github">
  <diagram id="MGTi0tSU79tcvpm7Kv2W" name="Page-1">
    <mxGraphModel dx="1422" dy="839" grid="1" gridSize="10" guides="1" tooltips="1" connect="1" arrows="1" fold="1" page="1" pageScale="1" pageWidth="850" pageHeight="1100" math="0" shadow="0">
      <root>
        <mxCell id="0" />
        <mxCell id="1" parent="0" />
        <mxCell id="XsOOKA-307Y4DER8havZ-1" value="" style="rounded=1;whiteSpace=wrap;html=1;" vertex="1" parent="1">
          <mxGeometry x="160" y="40" width="150" height="40" as="geometry" />
        </mxCell>
        <mxCell id="XsOOKA-307Y4DER8havZ-2" value="Entity Name" style="text;html=1;align=center;verticalAlign=middle;resizable=0;points=[];autosize=1;strokeColor=none;" vertex="1" parent="1">
          <mxGeometry x="50" y="50" width="80" height="20" as="geometry" />
        </mxCell>
        <mxCell id="XsOOKA-307Y4DER8havZ-4" value="" style="rounded=1;whiteSpace=wrap;html=1;" vertex="1" parent="1">
          <mxGeometry x="160" y="120" width="150" height="40" as="geometry" />
        </mxCell>
        <mxCell id="XsOOKA-307Y4DER8havZ-5" value="Property Name" style="text;html=1;align=center;verticalAlign=middle;resizable=0;points=[];autosize=1;strokeColor=none;" vertex="1" parent="1">
          <mxGeometry x="40" y="130" width="100" height="20" as="geometry" />
        </mxCell>
        <mxCell id="XsOOKA-307Y4DER8havZ-6" value="" style="rounded=1;whiteSpace=wrap;html=1;" vertex="1" parent="1">
          <mxGeometry x="155" y="380" width="150" height="40" as="geometry" />
        </mxCell>
        <mxCell id="XsOOKA-307Y4DER8havZ-7" value="Property Type" style="text;html=1;align=center;verticalAlign=middle;resizable=0;points=[];autosize=1;strokeColor=none;" vertex="1" parent="1">
          <mxGeometry x="40" y="390" width="90" height="20" as="geometry" />
        </mxCell>
        <mxCell id="XsOOKA-307Y4DER8havZ-8" value="" style="rounded=1;whiteSpace=wrap;html=1;" vertex="1" parent="1">
          <mxGeometry x="465" y="120" width="150" height="40" as="geometry" />
        </mxCell>
        <mxCell id="XsOOKA-307Y4DER8havZ-9" value="Group" style="text;html=1;align=center;verticalAlign=middle;resizable=0;points=[];autosize=1;strokeColor=none;" vertex="1" parent="1">
          <mxGeometry x="370" y="130" width="50" height="20" as="geometry" />
        </mxCell>
        <mxCell id="XsOOKA-307Y4DER8havZ-10" value="" style="rounded=1;whiteSpace=wrap;html=1;" vertex="1" parent="1">
          <mxGeometry x="770" y="120" width="150" height="40" as="geometry" />
        </mxCell>
        <mxCell id="XsOOKA-307Y4DER8havZ-11" value="Order" style="text;html=1;align=center;verticalAlign=middle;resizable=0;points=[];autosize=1;strokeColor=none;" vertex="1" parent="1">
          <mxGeometry x="675" y="130" width="50" height="20" as="geometry" />
        </mxCell>
        <mxCell id="XsOOKA-307Y4DER8havZ-12" value="" style="rounded=1;whiteSpace=wrap;html=1;" vertex="1" parent="1">
          <mxGeometry x="160" y="220" width="150" height="40" as="geometry" />
        </mxCell>
        <mxCell id="XsOOKA-307Y4DER8havZ-13" value="Property Label" style="text;html=1;align=center;verticalAlign=middle;resizable=0;points=[];autosize=1;strokeColor=none;" vertex="1" parent="1">
          <mxGeometry x="45" y="230" width="90" height="20" as="geometry" />
        </mxCell>
        <mxCell id="XsOOKA-307Y4DER8havZ-14" value="" style="rounded=1;whiteSpace=wrap;html=1;" vertex="1" parent="1">
          <mxGeometry x="465" y="220" width="150" height="40" as="geometry" />
        </mxCell>
        <mxCell id="XsOOKA-307Y4DER8havZ-15" value="Property Label Tool Tip" style="text;html=1;align=center;verticalAlign=middle;resizable=0;points=[];autosize=1;strokeColor=none;" vertex="1" parent="1">
          <mxGeometry x="325" y="230" width="140" height="20" as="geometry" />
        </mxCell>
      </root>
    </mxGraphModel>
  </diagram>
</mxfile>
